<svg width="64" height="101" viewBox="0 0 64 101" fill="none" xmlns="http://www.w3.org/2000/svg">
                                <path fill-rule="evenodd" clip-rule="evenodd" d="M6.92962 55.1041L10.6247 96.9935C18.8771 95.585 23.1174 82.115 25.6819 66.6408C28.4654 67.5631 31.488 67.9129 34.5932 67.5655C46.0962 66.2784 54.3779 55.9099 53.0908 44.4069C51.8226 33.0731 41.7383 24.8666 30.4391 25.8587L30.4401 25.8518C30.332 25.8639 30.2243 25.8764 30.1172 25.8894C30.0753 25.8937 30.0335 25.8982 29.9917 25.9027C29.9718 25.9049 29.952 25.9071 29.9322 25.9093C29.3186 25.9779 28.7143 26.0724 28.12 26.1916C9.772 29.5418 6.30118 46.6483 6.92962 55.1041ZM30.1515 40.3271C24.9616 40.9078 21.2251 45.5858 21.8058 50.7758C22.3865 55.9657 27.0646 59.7022 32.2545 59.1215C37.4444 58.5408 41.1809 53.8627 40.6002 48.6728C40.0195 43.4829 35.3415 39.7464 30.1515 40.3271Z" fill="#B84CB2"/>
                                <path fill-rule="evenodd" clip-rule="evenodd" d="M52.3696 2.8108L56.0647 44.7002C56.6222 52.202 53.9533 66.5128 40.5316 71.9858C38.541 72.9047 36.3711 73.5245 34.0726 73.7817C33.9053 73.8004 33.7382 73.8171 33.5713 73.8318C33.4018 73.8549 33.2316 73.876 33.0607 73.8952C32.9988 73.9021 32.937 73.9087 32.8752 73.9151C32.7687 73.928 32.6617 73.9405 32.5542 73.9525L32.5552 73.9457C21.2554 74.9386 11.1703 66.7319 9.90209 55.3976C8.61499 43.8946 16.8966 33.5261 28.3997 32.239C28.567 32.2203 28.7341 32.2036 28.901 32.1889C29.0705 32.1658 29.2407 32.1446 29.4116 32.1255C32.1692 31.817 34.8616 32.0583 37.3794 32.7622C39.9506 17.457 44.1886 4.20712 52.3696 2.8108ZM29.5131 40.3985C24.3232 40.9792 20.5867 45.6572 21.1674 50.8471C21.7481 56.0371 26.4262 59.7736 31.6161 59.1928C36.806 58.6121 40.5425 53.9341 39.9618 48.7442C39.3811 43.5543 34.7031 39.8178 29.5131 40.3985Z" fill="url(#paint0_linear_36014_5256)" fill-opacity="0.8"/>
                                <path fill-rule="evenodd" clip-rule="evenodd" d="M11.7788 100.024L8.17875 59.0071C7.54432 50.3895 11.357 32.5857 31.6829 30.3114C31.2602 33.1409 30.8786 36.553 30.4866 40.3284C30.2021 40.3345 29.9155 40.3534 29.6273 40.3857C24.4374 40.9664 20.7009 45.6444 21.2816 50.8343C21.7372 54.9064 24.7152 58.0837 28.4838 58.983C26.104 78.2961 22.0162 98.2875 11.7788 100.024Z" fill="url(#paint1_linear_36014_5256)" fill-opacity="0.85"/>
                                <path fill-rule="evenodd" clip-rule="evenodd" d="M28.9364 32.7506C18.3777 33.932 10.7759 43.4493 11.9573 54.008C13.1388 64.5667 22.656 72.1685 33.2148 70.9871C43.7735 69.8056 51.3753 60.2884 50.1938 49.7297C49.0124 39.1709 39.4951 31.5692 28.9364 32.7506ZM28.925 40.4644C23.7351 41.0451 19.9986 45.7232 20.5793 50.9131C21.16 56.103 25.8381 59.8395 31.028 59.2588C36.2179 58.6781 39.9544 54.0001 39.3737 48.8101C38.793 43.6202 34.115 39.8837 28.925 40.4644Z" fill="#C04EA8" fill-opacity="0.5"/>
                                <path fill-rule="evenodd" clip-rule="evenodd" d="M49.6724 1.30553L53.3351 42.3152C53.9904 50.9304 50.5452 68.6931 31.5222 70.8216C31.9576 67.5504 32.3358 63.4978 32.7342 59.005C37.3523 57.9431 40.5403 53.5625 40.0007 48.74C39.6132 45.2773 37.4019 42.4616 34.4314 41.1434C36.544 22.1954 40.2695 2.93762 49.6724 1.30553Z" fill="url(#paint2_linear_36014_5256)" fill-opacity="0.8"/>
                                <path fill-rule="evenodd" clip-rule="evenodd" d="M29.9765 42.1086C24.7866 42.6893 21.0501 47.3673 21.6308 52.5572C21.7292 53.437 21.9454 54.2751 22.2619 55.0574C21.4605 53.8474 20.9267 52.4343 20.7542 50.8929C20.1735 45.703 23.91 41.025 29.0999 40.4442C33.41 39.962 37.3671 42.4573 38.9175 46.2898C37.0206 43.4257 33.625 41.7003 29.9765 42.1086Z" fill="url(#paint3_linear_36014_5256)"/>
                                <path fill-rule="evenodd" clip-rule="evenodd" d="M6.87733 58.509L10.5725 100.398C18.7533 99.002 22.9913 85.7525 25.5626 70.4476C27.9255 71.1082 30.4423 71.3614 33.0224 71.135L33.0215 71.1414C33.1212 71.1303 33.2206 71.1187 33.3195 71.1068C33.3898 71.0997 33.4601 71.0921 33.5305 71.0843C33.7012 71.0652 33.8711 71.0441 34.0404 71.021C34.2072 71.0063 34.3744 70.9896 34.5417 70.9709C36.7301 70.726 38.8019 70.1525 40.7134 69.305C54.4652 63.958 57.3941 49.594 56.532 41.8891L52.8369 -0.000281485C44.6561 1.39602 40.4181 14.6454 37.8468 29.9501C35.4838 29.2898 32.967 29.0368 30.3868 29.2635L30.3878 29.2566C30.2801 29.2687 30.173 29.2812 30.0662 29.2941C30.0045 29.3005 29.9428 29.3071 29.881 29.314C29.7055 29.3336 29.5308 29.3554 29.3568 29.3792C29.1946 29.3936 29.0322 29.4099 28.8695 29.4281C26.5759 29.6847 24.4104 30.3024 22.4232 31.2182C8.99045 36.6872 6.31962 51.0047 6.87733 58.509ZM29.87 40.3584C24.68 40.9391 20.9435 45.6172 21.5242 50.8071C22.1049 55.997 26.783 59.7335 31.9729 59.1528C37.1628 58.5721 40.8993 53.8941 40.3186 48.7042C39.7379 43.5142 35.0599 39.7777 29.87 40.3584Z" fill="url(#paint4_linear_36014_5256)"/>
                                <defs>
                                <linearGradient id="paint0_linear_36014_5256" x1="37.2634" y1="83.8696" x2="30.0462" y2="19.3684" gradientUnits="userSpaceOnUse">
                                <stop offset="0.05" stop-color="white"/>
                                <stop offset="0.25" stop-color="#C04EA8"/>
                                </linearGradient>
                                <linearGradient id="paint1_linear_36014_5256" x1="21.9465" y1="108.081" x2="18.3288" y2="79.6538" gradientUnits="userSpaceOnUse">
                                <stop stop-color="white"/>
                                <stop offset="1" stop-color="#EA8450"/>
                                </linearGradient>
                                <linearGradient id="paint2_linear_36014_5256" x1="40.1979" y1="31.7748" x2="36.4734" y2="-8.41669" gradientUnits="userSpaceOnUse">
                                <stop offset="0.0822018" stop-color="#C452A1"/>
                                <stop offset="0.281222" stop-color="#934EDA"/>
                                </linearGradient>
                                <linearGradient id="paint3_linear_36014_5256" x1="24.5205" y1="52.0497" x2="29.0948" y2="40.4421" gradientUnits="userSpaceOnUse">
                                <stop offset="0.435" stop-color="#9A4ED2"/>
                                <stop offset="1" stop-color="#EF8A46" stop-opacity="0.5"/>
                                </linearGradient>
                                <linearGradient id="paint4_linear_36014_5256" x1="13.1954" y1="90.4331" x2="56.1497" y2="-0.48981" gradientUnits="userSpaceOnUse">
                                <stop stop-color="#EF8A46"/>
                                <stop offset="0.587073" stop-color="#C250A6"/>
                                <stop offset="1" stop-color="#8F4EDF"/>
                                </linearGradient>
                                </defs>
                                </svg>